HIERARCHY
ROOT Hips
{
	OFFSET	0.00	0.00	0.00
	CHANNELS 6 Xposition Yposition Zposition Zrotation Xrotation Yrotation
	JOINT LeftUpLeg
	{
		OFFSET	 0.126116	-0.065224	 0.014019
		CHANNELS 3 Zrotation Xrotation Yrotation
		JOINT LeftLeg
		{
			OFFSET	 0.000000	 0.569914	 0.000000
			CHANNELS 3 Zrotation Xrotation Yrotation
			JOINT LeftFoot
			{
				OFFSET	 0.000000	 0.544423	 0.000000
				CHANNELS 3 Zrotation Xrotation Yrotation
				JOINT LeftToeBase
				{
					OFFSET	 0.000000	 0.207117	 0.000000
					CHANNELS 3 Zrotation Xrotation Yrotation
					End Site
					{
						OFFSET	 0.000000	 0.207117	 0.000000
					}
				}
			}
		}
	}
	JOINT RightUpLeg
	{
		OFFSET	-0.124023	-0.065224	 0.008373
		CHANNELS 3 Zrotation Xrotation Yrotation
		JOINT RightLeg
		{
			OFFSET	 0.000000	 0.570047	 0.000000
			CHANNELS 3 Zrotation Xrotation Yrotation
			JOINT RightFoot
			{
				OFFSET	 0.000000	 0.544354	 0.000000
				CHANNELS 3 Zrotation Xrotation Yrotation
				JOINT RightToeBase
				{
					OFFSET	 0.000000	 0.207540	 0.000000
					CHANNELS 3 Zrotation Xrotation Yrotation
					End Site
					{
						OFFSET	 0.000000	 0.207540	 0.000000
					}
				}
			}
		}
	}
	JOINT Spine
	{
		OFFSET	 0.000184	 0.117403	 0.007763
		CHANNELS 3 Zrotation Xrotation Yrotation
		JOINT Spine1
		{
			OFFSET	 0.000000	 0.137269	 0.000000
			CHANNELS 3 Zrotation Xrotation Yrotation
			JOINT Spine2
			{
				OFFSET	 0.000000	 0.156879	 0.000000
				CHANNELS 3 Zrotation Xrotation Yrotation
				JOINT LeftShoulder
				{
					OFFSET	 0.080501	 0.160143	 0.002496
					CHANNELS 3 Zrotation Xrotation Yrotation
					JOINT LeftArm
					{
						OFFSET	 0.000000	 0.164363	 0.000000
						CHANNELS 3 Zrotation Xrotation Yrotation
						JOINT LeftForeArm
						{
							OFFSET	 0.000000	 0.364576	 0.000000
							CHANNELS 3 Zrotation Xrotation Yrotation
							JOINT LeftHand
							{
								OFFSET	 0.000000	 0.360812	 0.000000
								CHANNELS 3 Zrotation Xrotation Yrotation
								JOINT LeftHandIndex1
								{
									OFFSET	 0.000000	 0.086006	 0.000000
									CHANNELS 3 Zrotation Xrotation Yrotation
									JOINT LeftHandIndex2
									{
										OFFSET	 0.000000	 0.047237	 0.000000
										CHANNELS 3 Zrotation Xrotation Yrotation
										JOINT LeftHandIndex3
										{
											OFFSET	-0.004284	 0.038165	 0.000551
											CHANNELS 3 Zrotation Xrotation Yrotation
											End Site
											{
												OFFSET	-0.004284	 0.038165	 0.000551
											}
										}
									}
								}
							}
						}
					}
				}
				JOINT Neck
				{
					OFFSET	 0.000000	 0.176489	 0.000000
					CHANNELS 3 Zrotation Xrotation Yrotation
					JOINT Head
					{
						OFFSET	 0.000000	 0.077941	 0.001747
						CHANNELS 3 Zrotation Xrotation Yrotation
						End Site
						{
							OFFSET	 0.000000	 0.077941	 0.001747
						}
					}
				}
				JOINT RightShoulder
				{
					OFFSET	-0.080363	 0.159706	-0.000306
					CHANNELS 3 Zrotation Xrotation Yrotation
					JOINT RightArm
					{
						OFFSET	 0.000000	 0.164196	 0.000000
						CHANNELS 3 Zrotation Xrotation Yrotation
						JOINT RightForeArm
						{
							OFFSET	 0.000000	 0.365611	 0.000000
							CHANNELS 3 Zrotation Xrotation Yrotation
							JOINT RightHand
							{
								OFFSET	 0.000000	 0.360648	 0.000000
								CHANNELS 3 Zrotation Xrotation Yrotation
								JOINT RightHandIndex1
								{
									OFFSET	 0.000000	 0.069977	 0.000000
									CHANNELS 3 Zrotation Xrotation Yrotation
									JOINT RightHandIndex2
									{
										OFFSET	 0.000000	 0.052305	 0.000000
										CHANNELS 3 Zrotation Xrotation Yrotation
										JOINT RightHandIndex3
										{
											OFFSET	 0.009002	 0.042196	 0.000782
											CHANNELS 3 Zrotation Xrotation Yrotation
											End Site
											{
												OFFSET	 0.009002	 0.042196	 0.000782
											}
										}
									}
								}
							}
						}
					}
				}
			}
		}
	}
}
MOTION
Frames:    7
Frame Time: 0.03333334
 0.436581	 1.274194	 0.406843	 0.574911	-2.430465	-177.243500	-179.011600	 6.815183	-12.923890	 3.423783	-12.669610	 5.984466	 5.408437	 69.632610	-1.597203	 1.292262	 28.425850	-2.713146	 176.546300	 7.611615	 14.563370	-2.018804	-10.385820	 0.828124	 0.481306	 66.019800	-5.747899	-1.288183	 28.361890	 2.710176	 0.846327	 6.493706	 5.524024	-1.760404	-6.556386	 2.706431	 2.126204	 7.590915	-9.131383	-117.534400	-0.802832	 89.948200	 12.987060	-3.867131	-6.503906	 5.145835	-0.352632	 34.386550	 25.585130	-29.988460	 6.715276	-6.580301	 5.266122	 0.000000	 0.000000	 0.000000	 0.000000	 0.000000	 0.000000	 0.000000	 4.847327	 27.280690	 1.669654	-4.175075	-16.722850	-2.266589	 116.406300	-0.472934	-90.557850	-7.592916	-6.246021	 23.446530	-15.571490	 0.452422	-56.870060	 15.653460	-10.019010	 17.509450	 15.208500	 5.323790	 0.000000	 0.000000	 0.000000	 0.000000	 0.000000	 0.000000	 0.000000
 0.436584	 1.274829	 0.408016	 0.602639	-2.695490	-177.217200	-178.961800	 7.062905	-13.164280	 3.370942	-12.480460	 6.037500	 5.647848	 69.352240	-1.728068	 1.292262	 28.425850	-2.713146	 176.536900	 7.870381	 14.851260	-1.989978	-10.240810	 0.739164	 0.108237	 65.788480	-5.487391	-1.288183	 28.361890	 2.710176	 0.982370	 6.573589	 4.462200	-1.768195	-6.901109	 2.707796	 2.160623	 8.117345	-9.180730	-117.814500	-0.888130	 89.909860	 13.291820	-3.766273	-5.735160	 5.479446	-0.140654	 33.145620	 26.837290	-30.516650	 7.532557	-6.580301	 5.266122	 0.000000	 0.000000	 0.000000	 0.000000	 0.000000	 0.000000	 0.000000	 5.044102	 27.893440	 1.505884	-4.203958	-17.036200	-2.245713	 116.848000	-0.594673	-90.515230	-5.811719	-5.231967	 23.465210	-20.806800	 0.886619	-55.797530	 16.718940	-8.908446	 16.139680	 15.208500	 5.323790	 0.000000	 0.000000	 0.000000	 0.000000	 0.000000	 0.000000	 0.000000
 0.436557	 1.275411	 0.410039	 0.649260	-3.089509	-177.177100	-178.901800	 7.631979	-13.387080	 3.398264	-12.578290	 6.139153	 6.022087	 69.166390	-1.981929	 1.292262	 28.425850	-2.713146	 176.534700	 8.314641	 15.147050	-1.967105	-10.125610	 0.604497	-0.408481	 65.532090	-5.114770	-1.288183	 28.361890	 2.710176	 1.202828	 6.789539	 2.879016	-1.787413	-7.478351	 2.708887	 2.217315	 8.932277	-9.256303	-118.232800	-1.015117	 89.851810	 13.802900	-3.346429	-4.626655	 5.991301	 0.160194	 31.335330	 28.607520	-31.449860	 8.797359	-6.580301	 5.266122	 0.000000	 0.000000	 0.000000	 0.000000	 0.000000	 0.000000	 0.000000	 5.343857	 28.807720	 1.255031	-4.247124	-17.503890	-2.213894	 117.507800	-0.775825	-90.449840	-3.468990	-3.502328	 23.285610	-28.324710	 1.513341	-54.248530	 18.575380	-7.569171	 14.253990	 15.208500	 5.323790	 0.000000	 0.000000	 0.000000	 0.000000	 0.000000	 0.000000	 0.000000
 0.436444	 1.275883	 0.413827	 0.736348	-3.718109	-177.110900	-178.806200	 8.668442	-13.623450	 3.500860	-12.945000	 6.314399	 6.635009	 68.993930	-2.420589	 1.292262	 28.425850	-2.713146	 176.540700	 9.145576	 15.501340	-1.971205	-10.146270	 0.385129	-1.185780	 65.246310	-4.539279	-1.288183	 28.361890	 2.710176	 1.597765	 7.132756	 0.342694	-1.788007	-8.144638	 2.720994	 2.289607	 10.122370	-9.377070	-118.906200	-1.218602	 89.756410	 10.710880	-1.602825	-3.058607	 15.012930	-0.045462	 28.645550	 27.180820	-31.085540	 9.531743	-6.580301	 5.266122	 0.000000	 0.000000	 0.000000	 0.000000	 0.000000	 0.000000	 0.000000	 5.842026	 30.277450	 0.834650	-4.316690	-18.256270	-2.160990	 118.570300	-1.065769	-90.340230	-0.673219	-0.453896	 22.465400	-39.156480	 2.457175	-51.887340	 21.914010	-6.334524	 11.549170	 15.208500	 5.323790	 0.000000	 0.000000	 0.000000	 0.000000	 0.000000	 0.000000	 0.000000
 0.436302	 1.276067	 0.418354	 0.832678	-4.383987	-177.036200	-178.708200	 9.847568	-13.793600	 3.642642	-13.449870	 6.506893	 7.294125	 68.871260	-2.900981	 1.292262	 28.425850	-2.713146	 176.545600	 10.119020	 15.802350	-2.004965	-10.316150	 0.153035	-1.972905	 65.023250	-3.949794	-1.288183	 28.361890	 2.710176	 2.056806	 7.485091	-2.321856	-1.760567	-8.572687	 2.745128	 2.348215	 11.256880	-9.504655	-119.621100	-1.433214	 89.652600	 8.690604	 0.355905	-1.221898	 22.418760	-0.114637	 25.960970	 26.365180	-31.545070	 10.727930	-6.580301	 5.266122	 0.000000	 0.000000	 0.000000	 0.000000	 0.000000	 0.000000	 0.000000	 6.393127	 31.833780	 0.364870	-4.390610	-19.053950	-2.102628	 119.698400	-1.371167	-90.218060	 0.988735	 2.879426	 20.982090	-48.726140	 3.374945	-49.559750	 25.608180	-6.197797	 9.036855	 15.208500	 5.323790	 0.000000	 0.000000	 0.000000	 0.000000	 0.000000	 0.000000	 0.000000
 0.436147	 1.276077	 0.423999	 0.949180	-5.164033	-176.945200	-178.597100	 11.266670	-13.934180	 3.820407	-14.079810	 6.734793	 8.077401	 68.742940	-3.468758	 1.292262	 28.425850	-2.713146	 176.551200	 11.307130	 16.098530	-2.056912	-10.577450	-0.113808	-2.868476	 64.792820	-3.282557	-1.288183	 28.361890	 2.710176	 2.642425	 7.878767	-5.394064	-1.691844	-8.825803	 2.787926	 2.395960	 12.472800	-9.654909	-120.460200	-1.683266	 89.527450	 8.297953	 2.542453	 1.034456	 27.633370	 0.031984	 22.902280	 26.726060	-32.934500	 12.520030	-6.580301	 5.266122	 0.000000	 0.000000	 0.000000	 0.000000	 0.000000	 0.000000	 0.000000	 7.071517	 33.654330	-0.219671	-4.477442	-19.988560	-2.031336	 121.022700	-1.726219	-90.067090	 1.354289	 6.588389	 18.789230	-57.304240	 4.358863	-47.058450	 29.652120	-7.296178	 6.526243	 15.208500	 5.323790	 0.000000	 0.000000	 0.000000	 0.000000	 0.000000	 0.000000	 0.000000
 0.436062	 1.276050	 0.430566	 1.085238	-6.082042	-176.834900	-178.475800	 12.893620	-14.076290	 4.002819	-14.722470	 6.995322	 8.932189	 68.548820	-4.036708	 1.292262	 28.425850	-2.713146	 176.566000	 12.667770	 16.359110	-2.100754	-10.793380	-0.418302	-3.970025	 64.477160	-2.452523	-1.288183	 28.361890	 2.710176	 3.378921	 8.300187	-8.897797	-1.565994	-8.965703	 2.854518	 2.429638	 13.827440	-9.834845	-121.445500	-1.974277	 89.375940	 9.607763	 4.658096	 3.566171	 30.754490	 0.359052	 19.394670	 28.206720	-34.737190	 14.441280	-6.580301	 5.266122	 0.000000	 0.000000	 0.000000	 0.000000	 0.000000	 0.000000	 0.000000	 7.915679	 35.782020	-0.955755	-4.579486	-21.083490	-1.943901	 122.577900	-2.138202	-89.879550	 0.037999	 10.240520	 16.322680	-63.926830	 5.419767	-44.421010	 33.278500	-9.598293	 4.242926	 15.208500	 5.323790	 0.000000	 0.000000	 0.000000	 0.000000	 0.000000	 0.000000	 0.000000
